<svg width="512" height="512" viewBox="0 0 512 512" fill="none" xmlns="http://www.w3.org/2000/svg">
<g clip-path="url(#clip0)">
<rect width="512" height="512" fill="white"/>
<g filter="url(#filter0_i)">
<path d="M256 176C262.66 134.398 279.81 98.2695 303.857 75.1836C327.903 52.0976 356.982 43.8451 385 52.1547" stroke="#45413C" stroke-width="5" stroke-linecap="round" stroke-linejoin="round"/>
<path opacity="0.15" d="M256 501.333C370.875 501.333 464 494.17 464 485.333C464 476.497 370.875 469.333 256 469.333C141.125 469.333 48 476.497 48 485.333C48 494.17 141.125 501.333 256 501.333Z" fill="#45413C"/>
<path d="M448 432C448 443.316 443.505 454.168 435.503 462.17C427.502 470.171 416.649 474.667 405.333 474.667H106.667C95.3508 474.667 84.4983 470.171 76.4968 462.17C68.4952 454.168 64 443.316 64 432V288C64 237.078 84.2285 188.242 120.235 152.236C156.242 116.229 205.078 96 256 96C306.922 96 355.758 116.229 391.764 152.236C427.771 188.242 448 237.078 448 288V432Z" fill="#DAEDF7"/>
<path d="M256 96C205.078 96 156.242 116.229 120.235 152.235C84.2285 188.242 64 237.078 64 288V341.333C64 290.412 84.2285 241.576 120.235 205.569C156.242 169.562 205.078 149.333 256 149.333C306.922 149.333 355.758 169.562 391.764 205.569C427.771 241.576 448 290.412 448 341.333V288C448 237.078 427.771 188.242 391.764 152.235C355.758 116.229 306.922 96 256 96V96Z" fill="white"/>
<path d="M448 432C448 443.316 443.505 454.168 435.503 462.17C427.502 470.171 416.649 474.667 405.333 474.667H106.667C95.3508 474.667 84.4983 470.171 76.4968 462.17C68.4952 454.168 64 443.316 64 432V288C64 237.078 84.2285 188.242 120.235 152.236C156.242 116.229 205.078 96 256 96C306.922 96 355.758 116.229 391.764 152.236C427.771 188.242 448 237.078 448 288V432Z" stroke="#45413C" stroke-linecap="round" stroke-linejoin="round"/>
<path d="M304 362.667H208C196.218 362.667 186.667 372.218 186.667 384V469.333C186.667 481.115 196.218 490.667 208 490.667H304C315.782 490.667 325.333 481.115 325.333 469.333V384C325.333 372.218 315.782 362.667 304 362.667Z" fill="#C0DCEB"/>
<path d="M325.333 410.667H186.667V432H325.333V410.667Z" fill="#ADC4D9"/>
<path d="M485.333 383.147C485.341 385.026 484.851 386.874 483.915 388.504C482.978 390.134 481.628 391.487 480 392.427L448 410.667V277.333L480 295.573C481.628 296.513 482.978 297.866 483.915 299.496C484.851 301.126 485.341 302.974 485.333 304.853V383.147Z" fill="#ADC4D9" stroke="#45413C" stroke-linecap="round" stroke-linejoin="round"/>
<path d="M26.6667 383.147C26.6592 385.026 27.1485 386.874 28.0851 388.504C29.0217 390.134 30.3722 391.487 32 392.427L64 410.667V277.333L32 295.573C30.3722 296.513 29.0217 297.866 28.0851 299.496C27.1485 301.126 26.6592 302.974 26.6667 304.853V383.147Z" fill="#ADC4D9" stroke="#45413C" stroke-linecap="round" stroke-linejoin="round"/>
<path d="M304 362.667H208C196.218 362.667 186.667 372.218 186.667 384V469.333C186.667 481.115 196.218 490.667 208 490.667H304C315.782 490.667 325.333 481.115 325.333 469.333V384C325.333 372.218 315.782 362.667 304 362.667Z" stroke="#45413C" stroke-linecap="round" stroke-linejoin="round"/>
<path d="M208 362.667H304C309.658 362.667 315.084 364.914 319.085 368.915C323.086 372.916 325.333 378.342 325.333 384V410.667H186.667V384C186.667 378.342 188.914 372.916 192.915 368.915C196.916 364.914 202.342 362.667 208 362.667V362.667Z" fill="#FF6242" stroke="#45413C" stroke-linecap="round" stroke-linejoin="round"/>
<path d="M357.333 124.907C326.914 106.005 291.814 95.9881 256 95.9881C220.186 95.9881 185.086 106.005 154.667 124.907V256H357.333V124.907Z" stroke="#45413C" stroke-linecap="round" stroke-linejoin="round"/>
<path d="M346.667 320C376.122 320 400 296.122 400 266.667C400 237.211 376.122 213.333 346.667 213.333C317.211 213.333 293.333 237.211 293.333 266.667C293.333 296.122 317.211 320 346.667 320Z" fill="#00DFEB" stroke="#45413C" stroke-linecap="round" stroke-linejoin="round"/>
<path d="M346.667 288C358.449 288 368 278.449 368 266.667C368 254.885 358.449 245.333 346.667 245.333C334.885 245.333 325.333 254.885 325.333 266.667C325.333 278.449 334.885 288 346.667 288Z" fill="#627B8C" stroke="#45413C" stroke-linecap="round" stroke-linejoin="round"/>
<path d="M165.333 320C194.789 320 218.667 296.122 218.667 266.667C218.667 237.211 194.789 213.333 165.333 213.333C135.878 213.333 112 237.211 112 266.667C112 296.122 135.878 320 165.333 320Z" fill="#00DFEB" stroke="#45413C" stroke-linecap="round" stroke-linejoin="round"/>
<path d="M165.333 288C177.115 288 186.667 278.449 186.667 266.667C186.667 254.885 177.115 245.333 165.333 245.333C153.551 245.333 144 254.885 144 266.667C144 278.449 153.551 288 165.333 288Z" fill="#627B8C" stroke="#45413C" stroke-linecap="round" stroke-linejoin="round"/>
</g>
<g filter="url(#filter1_i)">
<path d="M121.21 305.319C121.21 305.319 233.431 368.665 388.777 305.319C388.777 305.319 371.863 466.319 414.94 443.175C414.94 443.175 275.742 538.673 108.896 448.973C108.896 448.973 140.425 458.604 121.21 305.319Z" fill="#48E5A2"/>
<g opacity="0.3">
<path opacity="0.3" d="M339.519 324.15C339.519 324.15 359.788 360.71 352.217 384.765C344.646 408.819 350.683 466.223 375.6 463.396L405.596 449.021C405.596 449.021 377.325 417.156 388.777 305.51L339.519 324.15Z" fill="#464965"/>
</g>
<g opacity="0.4">
<path opacity="0.4" d="M159.783 320.508C159.783 320.508 146.654 375.229 168.696 399.187C190.738 423.146 179.908 465.648 141 464.162L108.896 448.973C108.896 448.973 138.221 461.767 121.21 305.223L159.783 320.508Z" fill="white"/>
</g>
<path d="M257.246 494.637C238.724 494.694 220.234 493.091 201.998 489.846C200.092 489.503 198.4 488.416 197.295 486.826C196.189 485.235 195.761 483.271 196.104 481.365C196.447 479.458 197.534 477.766 199.124 476.661C200.715 475.556 202.679 475.128 204.585 475.471C269.124 486.676 335.556 476.585 393.856 446.721C370.521 422.762 379.481 324.485 381.638 304.312C381.855 302.425 382.806 300.698 384.285 299.506C385.764 298.314 387.653 297.751 389.544 297.94C390.479 298.035 391.386 298.315 392.213 298.762C393.04 299.209 393.77 299.815 394.362 300.545C394.955 301.275 395.397 302.115 395.663 303.016C395.93 303.918 396.016 304.863 395.917 305.798C390.838 354.721 390.167 427.746 404.925 437.569C405.596 438.048 407.225 439.15 411.538 436.85C413.161 435.966 415.063 435.742 416.848 436.224C418.632 436.705 420.163 437.856 421.121 439.437C422.043 441.002 422.342 442.856 421.961 444.631C421.579 446.406 420.544 447.973 419.06 449.021C370.433 479.022 314.383 494.823 257.246 494.637V494.637Z" fill="#464965"/>
<path d="M177.56 483.856C176.911 483.851 176.266 483.754 175.644 483.569C151.274 476.807 127.743 467.323 105.494 455.298C103.995 454.505 102.825 453.209 102.189 451.637C101.554 450.065 101.495 448.319 102.023 446.708C102.55 445.096 103.63 443.723 105.072 442.831C106.514 441.939 108.225 441.586 109.902 441.833C111.627 440.875 129.069 427.458 114.071 306.181C113.912 304.865 114.12 303.53 114.672 302.324C115.225 301.119 116.1 300.089 117.201 299.35C118.302 298.611 119.586 298.191 120.911 298.137C122.236 298.082 123.55 298.396 124.708 299.042C125.715 299.569 224.615 353.715 362.327 307.475C364.132 306.84 366.115 306.947 367.84 307.774C369.565 308.601 370.892 310.079 371.527 311.883C372.163 313.688 372.055 315.671 371.228 317.396C370.402 319.122 368.923 320.448 367.119 321.083C250.058 360.375 161.46 331.098 130.075 317.49C138.029 387.496 135.873 431.435 123.654 448.398C141.506 457.232 160.147 464.371 179.333 469.721C181.24 469.975 182.967 470.976 184.135 472.504C185.303 474.031 185.817 475.96 185.563 477.867C185.308 479.773 184.307 481.5 182.78 482.668C181.252 483.837 179.323 484.35 177.417 484.096L177.56 483.856Z" fill="#464965"/>
<path d="M390.981 331.337H387.627C386.669 331.313 385.724 331.098 384.85 330.705C383.975 330.312 383.187 329.75 382.531 329.05C381.876 328.35 381.366 327.526 381.032 326.628C380.697 325.729 380.545 324.773 380.583 323.815C380.695 321.921 381.535 320.144 382.929 318.857C384.323 317.57 386.162 316.874 388.058 316.915C392.563 316.915 432.86 317.873 461.85 291.327C462.519 290.567 463.341 289.956 464.262 289.536C465.184 289.115 466.183 288.894 467.196 288.887C468.209 288.88 469.211 289.087 470.139 289.495C471.066 289.902 471.896 290.501 472.576 291.252C473.255 292.003 473.768 292.889 474.082 293.852C474.395 294.815 474.501 295.833 474.393 296.84C474.285 297.847 473.966 298.82 473.456 299.695C472.946 300.569 472.256 301.327 471.433 301.917C442.3 328.846 404.206 331.337 390.981 331.337Z" fill="#464965"/>
<path d="M393.09 422.762C390.598 422.762 389.065 422.762 388.729 422.762C386.823 422.623 385.05 421.731 383.801 420.285C382.552 418.838 381.929 416.954 382.069 415.048C382.209 413.142 383.1 411.369 384.547 410.12C385.993 408.871 387.877 408.248 389.783 408.387V408.387C390.167 408.387 431.231 410.879 461.994 382.752C462.663 381.992 463.485 381.381 464.406 380.961C465.327 380.54 466.327 380.319 467.34 380.312C468.352 380.305 469.355 380.512 470.282 380.92C471.209 381.327 472.04 381.926 472.719 382.677C473.399 383.428 473.912 384.314 474.225 385.277C474.539 386.24 474.645 387.258 474.537 388.265C474.429 389.272 474.11 390.245 473.599 391.12C473.089 391.994 472.4 392.752 471.577 393.342C449.834 412.318 421.949 422.771 393.09 422.762V422.762Z" fill="#464965"/>
<path d="M121.019 334.883C107.458 334.883 69.6042 332.296 40.375 305.462C39.5519 304.873 38.8627 304.115 38.3526 303.24C37.8426 302.366 37.5232 301.393 37.4153 300.386C37.3075 299.379 37.4136 298.361 37.7268 297.397C38.04 296.434 38.5532 295.548 39.2327 294.798C39.9122 294.047 40.7428 293.448 41.6699 293.04C42.597 292.633 43.5997 292.426 44.6124 292.433C45.6251 292.44 46.6248 292.661 47.5461 293.082C48.4674 293.502 49.2894 294.113 49.9584 294.873C76.7917 319.406 112.25 320.652 122.552 320.508C123.498 320.483 124.439 320.645 125.321 320.987C126.203 321.328 127.009 321.842 127.691 322.497C128.373 323.152 128.918 323.937 129.294 324.804C129.671 325.672 129.871 326.606 129.883 327.552C129.902 328.496 129.735 329.434 129.392 330.314C129.048 331.193 128.534 331.996 127.88 332.677C127.226 333.358 126.444 333.903 125.579 334.282C124.715 334.66 123.784 334.865 122.84 334.883H121.019Z" fill="#464965"/>
<path d="M118.91 426.308C90.0219 426.302 62.1169 415.814 40.375 396.792C39.5519 396.202 38.8627 395.444 38.3526 394.57C37.8426 393.695 37.5232 392.722 37.4153 391.715C37.3075 390.708 37.4136 389.69 37.7268 388.727C38.04 387.764 38.5532 386.878 39.2327 386.127C39.9122 385.376 40.7428 384.777 41.6699 384.37C42.597 383.962 43.5997 383.755 44.6124 383.762C45.6251 383.769 46.6248 383.99 47.5461 384.411C48.4674 384.831 49.2894 385.442 49.9584 386.202C80.7209 414.329 121.833 411.885 122.169 411.837C124.075 411.698 125.959 412.321 127.405 413.57C128.852 414.819 129.744 416.592 129.883 418.498C130.023 420.404 129.4 422.288 128.151 423.735C126.902 425.181 125.129 426.073 123.223 426.212C122.935 426.212 121.402 426.308 118.91 426.308Z" fill="#464965"/>
<path d="M257.725 385.675C239.172 385.628 220.646 384.267 202.285 381.602C200.399 381.34 198.693 380.341 197.543 378.822C196.393 377.304 195.893 375.391 196.152 373.504C196.437 371.619 197.45 369.921 198.973 368.774C200.496 367.627 202.408 367.124 204.298 367.371C242.631 372.881 299.365 375.325 349.629 355.775C351.375 355.203 353.273 355.32 354.935 356.104C356.596 356.888 357.895 358.278 358.563 359.989C359.232 361.7 359.22 363.603 358.53 365.305C357.839 367.008 356.523 368.381 354.852 369.144C323.768 380.577 290.842 386.181 257.725 385.675V385.675Z" fill="#464965"/>
<path d="M177.56 377.194H176.075C164.958 374.654 158.058 372.833 157.771 372.833C155.959 372.279 154.438 371.032 153.541 369.363C152.643 367.694 152.442 365.738 152.979 363.921C153.248 363.02 153.692 362.181 154.286 361.452C154.88 360.723 155.612 360.119 156.44 359.673C157.268 359.228 158.176 358.951 159.112 358.857C160.047 358.764 160.992 358.856 161.892 359.129C161.892 359.129 168.36 360.998 179.142 363.25C181.048 363.447 182.798 364.393 184.006 365.88C185.215 367.367 185.783 369.274 185.586 371.18C185.389 373.086 184.443 374.836 182.956 376.045C181.469 377.254 179.562 377.822 177.656 377.625L177.56 377.194Z" fill="#464965"/>
<path d="M352.217 433.208C351.755 433.258 351.289 433.258 350.827 433.208L349.485 432.825L348.24 432.154C347.851 431.877 347.483 431.573 347.138 431.244C346.797 430.909 346.492 430.539 346.227 430.142C345.975 429.742 345.751 429.326 345.556 428.896C345.4 428.457 345.272 428.009 345.173 427.554C344.982 426.638 344.982 425.691 345.173 424.775C345.272 424.32 345.4 423.872 345.556 423.433C345.751 423.003 345.975 422.587 346.227 422.187C346.459 421.687 346.731 421.206 347.042 420.75C348.418 419.46 350.234 418.742 352.121 418.742C354.008 418.742 355.824 419.46 357.2 420.75C357.529 421.095 357.833 421.464 358.11 421.852C358.362 422.251 358.586 422.668 358.781 423.098C358.937 423.537 359.065 423.985 359.165 424.44C359.356 425.356 359.356 426.302 359.165 427.219C359.065 427.674 358.937 428.122 358.781 428.56C358.597 428.996 358.372 429.413 358.11 429.806C357.846 430.204 357.541 430.573 357.2 430.908C356.855 431.237 356.486 431.542 356.098 431.819L354.852 432.49L353.51 432.873C353.092 433.029 352.658 433.141 352.217 433.208Z" fill="#464965"/>
<path d="M250.921 448.206C219.274 448.347 187.794 443.628 157.579 434.215C156.089 433.421 154.926 432.129 154.293 430.564C153.66 428.999 153.598 427.261 154.119 425.656C154.639 424.05 155.707 422.678 157.137 421.781C158.567 420.884 160.267 420.519 161.94 420.75C197.11 431.963 254.275 441.833 327.156 425.542C328.099 425.263 329.089 425.181 330.065 425.3C331.041 425.419 331.982 425.738 332.83 426.235C333.678 426.733 334.415 427.399 334.995 428.193C335.576 428.987 335.987 429.891 336.204 430.85C336.42 431.809 336.438 432.802 336.256 433.768C336.073 434.735 335.694 435.653 335.143 436.467C334.591 437.281 333.879 437.973 333.049 438.5C332.219 439.028 331.29 439.379 330.319 439.533C304.259 445.375 277.627 448.284 250.921 448.206Z" fill="#464965"/>
</g>
<path d="M417.438 49C417.438 68.5716 401.572 84.4375 382 84.4375C362.428 84.4375 346.562 68.5716 346.562 49C346.562 29.4284 362.428 13.5625 382 13.5625C401.572 13.5625 417.438 29.4284 417.438 49Z" fill="#EF5E3B" stroke="#45413C"/>
<path d="M377.813 28.6875V26.0625H379.938V28.5315V28.5814L379.947 28.6303L380.173 29.7487C380.173 29.7488 380.173 29.749 380.173 29.7491C380.629 32.0302 380.372 34.392 379.443 36.5161L377.535 35.5753C378.258 33.8743 378.454 31.9907 378.09 30.1705L378.09 30.1697L377.834 28.8976L377.833 28.8972C377.82 28.8282 377.812 28.758 377.813 28.6876V28.6875Z" fill="#E04F2B" stroke="#45413C"/>
<path d="M386.465 35.5753L384.557 36.5161C383.628 34.392 383.371 32.0301 383.827 29.7491C383.827 29.749 383.827 29.7488 383.827 29.7487L384.053 28.6303L384.062 28.5814V28.5315V26.0625H386.187V28.6875V28.6876C386.188 28.758 386.18 28.8282 386.167 28.8972L386.166 28.8976L385.91 30.1697L385.91 30.1705C385.546 31.9907 385.742 33.8743 386.465 35.5753Z" fill="#E04F2B" stroke="#45413C"/>
<path d="M364.676 37.5979L362.82 35.7417L364.322 34.2391L366.068 35.985L366.103 36.0203L366.145 36.0479L367.095 36.6793C367.095 36.6793 367.095 36.6794 367.095 36.6794C369.031 37.9701 370.519 39.822 371.365 41.9805L369.35 42.6647C368.659 40.9504 367.465 39.48 365.921 38.4502L365.92 38.4497L364.839 37.7316L364.839 37.7314C364.78 37.6925 364.726 37.6478 364.676 37.598L364.676 37.5979Z" fill="#E04F2B" stroke="#45413C"/>
<path d="M367.239 31.3223L368.742 29.8197L370.598 31.6759L370.598 31.676C370.648 31.7257 370.692 31.7803 370.731 31.839L370.732 31.8393L371.45 32.9202L371.45 32.9209C372.48 34.4652 373.95 35.6586 375.665 36.35L374.981 38.3646C372.822 37.5192 370.97 36.0309 369.68 34.0957C369.679 34.0955 369.679 34.0954 369.679 34.0953L369.048 33.145L369.02 33.1034L368.985 33.0682L367.239 31.3223Z" fill="#E04F2B" stroke="#45413C"/>
<path d="M363.171 52.9097L363.17 52.9099L361.898 53.1665L361.897 53.1665C361.828 53.1805 361.758 53.1875 361.688 53.1875H361.688H359.062V51.0625H361.531H361.581L361.63 51.0526L362.749 50.8272C362.749 50.8271 362.749 50.8271 362.749 50.8271C365.03 50.3713 367.392 50.6284 369.516 51.5569L368.575 53.4652C366.874 52.7418 364.991 52.546 363.171 52.9097Z" fill="#E04F2B" stroke="#45413C"/>
<path d="M368.575 44.5348L369.516 46.4431C367.392 47.3717 365.03 47.6287 362.749 47.1729C362.749 47.1729 362.749 47.1729 362.749 47.1728L361.63 46.9474L361.581 46.9375H361.531H359.062V44.8125L361.688 44.8125L361.688 44.8125C361.758 44.8125 361.828 44.8195 361.897 44.8335L361.898 44.8335L363.17 45.0901L363.171 45.0902C364.991 45.454 366.874 45.2582 368.575 44.5348Z" fill="#E04F2B" stroke="#45413C"/>
<path d="M371.45 65.0791L371.45 65.0798L370.732 66.1607L370.731 66.161C370.692 66.2197 370.648 66.2743 370.598 66.324L370.598 66.3241L368.742 68.1803L367.239 66.6777L368.985 64.9318L369.02 64.8966L369.048 64.855L369.679 63.9047C369.679 63.9046 369.679 63.9045 369.679 63.9044C370.97 61.9691 372.822 60.4808 374.981 59.6354L375.665 61.65C373.95 62.3414 372.48 63.5348 371.45 65.0791Z" fill="#E04F2B" stroke="#45413C"/>
<path d="M364.322 63.7609L362.82 62.2583L364.676 60.4021L364.676 60.402C364.726 60.3522 364.78 60.3075 364.839 60.2686L364.839 60.2684L365.92 59.5503L365.921 59.5498C367.465 58.52 368.659 57.0496 369.35 55.3353L371.365 56.0195C370.519 58.178 369.031 60.0298 367.096 61.3205C367.096 61.3206 367.095 61.3206 367.095 61.3207L366.145 61.9521L366.103 61.9797L366.068 62.015L364.322 63.7609Z" fill="#E04F2B" stroke="#45413C"/>
<path d="M385.91 67.8295L385.91 67.8303L386.166 69.1024L386.167 69.1028C386.18 69.1718 386.188 69.242 386.187 69.3124V69.3125V71.9375H384.062V69.4685V69.4186L384.053 69.3697L383.827 68.2513C383.827 68.2512 383.827 68.251 383.827 68.2509C383.371 65.9698 383.628 63.608 384.557 61.4839L386.465 62.4247C385.742 64.1257 385.546 66.0093 385.91 67.8295Z" fill="#E04F2B" stroke="#45413C"/>
<path d="M377.535 62.4247L379.443 61.4839C380.372 63.608 380.629 65.9698 380.173 68.2509C380.173 68.251 380.173 68.2512 380.173 68.2513L379.947 69.3697L379.938 69.4186V69.4685V71.9375H377.813L377.813 69.3125L377.813 69.3124C377.812 69.242 377.82 69.1718 377.833 69.1028L377.834 69.1024L378.09 67.8303L378.09 67.8295C378.454 66.0093 378.258 64.1257 377.535 62.4247Z" fill="#E04F2B" stroke="#45413C"/>
<path d="M398.079 59.5498L398.08 59.5503L399.161 60.2684L399.161 60.2686C399.22 60.3075 399.274 60.3522 399.324 60.402L399.324 60.4021L401.18 62.2583L399.678 63.7609L397.932 62.015L397.897 61.9797L397.855 61.9521L396.905 61.3207C396.905 61.3206 396.904 61.3206 396.904 61.3205C394.969 60.0298 393.481 58.178 392.635 56.0195L394.65 55.3353C395.341 57.0496 396.535 58.52 398.079 59.5498Z" fill="#E04F2B" stroke="#45413C"/>
<path d="M396.761 66.6777L395.258 68.1803L393.402 66.3241L393.402 66.324C393.352 66.2743 393.308 66.2197 393.269 66.161L393.268 66.1607L392.55 65.0798L392.55 65.0791C391.52 63.5348 390.05 62.3414 388.335 61.65L389.019 59.6354C391.178 60.4808 393.03 61.9691 394.32 63.9043C394.321 63.9044 394.321 63.9046 394.321 63.9047L394.952 64.855L394.98 64.8966L395.015 64.9318L396.761 66.6777Z" fill="#E04F2B" stroke="#45413C"/>
<path d="M402.312 44.8125H404.937V46.9375H402.469H402.419L402.37 46.9474L401.251 47.1728C401.251 47.1729 401.251 47.1729 401.251 47.1729C398.97 47.6287 396.608 47.3716 394.484 46.4431L395.425 44.5348C397.126 45.2582 399.009 45.454 400.829 45.0902L400.83 45.0901L402.102 44.8335L402.103 44.8335C402.172 44.8195 402.242 44.8125 402.312 44.8125H402.312Z" fill="#E04F2B" stroke="#45413C"/>
<path d="M402.469 51.0625H404.937V53.1875H402.312H402.312C402.242 53.1875 402.172 53.1805 402.103 53.1665L402.102 53.1665L400.83 52.9099L400.829 52.9098C399.009 52.546 397.126 52.7418 395.425 53.4652L394.484 51.5569C396.608 50.6284 398.97 50.3713 401.251 50.8271C401.251 50.8271 401.251 50.8271 401.251 50.8272L402.37 51.0526L402.419 51.0625H402.469Z" fill="#E04F2B" stroke="#45413C"/>
<path d="M395.258 29.8197L396.761 31.3223L395.015 33.0682L394.98 33.1034L394.952 33.145L394.321 34.0953C394.321 34.0954 394.321 34.0955 394.321 34.0956C393.03 36.0309 391.178 37.5192 389.019 38.3646L388.335 36.35C390.05 35.6586 391.52 34.4652 392.55 32.9209L392.55 32.9202L393.268 31.8393L393.269 31.839C393.308 31.7803 393.352 31.7257 393.402 31.676L393.402 31.6759L395.258 29.8197Z" fill="#E04F2B" stroke="#45413C"/>
<path d="M399.678 34.2391L401.18 35.7417L399.324 37.5979L399.324 37.598C399.274 37.6478 399.22 37.6925 399.161 37.7314L399.161 37.7316L398.08 38.4497L398.079 38.4502C396.535 39.48 395.341 40.9504 394.65 42.6647L392.635 41.9805C393.481 39.8221 394.969 37.9702 396.904 36.6796C396.904 36.6795 396.905 36.6794 396.905 36.6793L397.855 36.0479L397.897 36.0203L397.932 35.985L399.678 34.2391Z" fill="#E04F2B" stroke="#45413C"/>
<path d="M379.375 10.4375H384.625V17.25H379.375V10.4375Z" fill="#EF5E3B" stroke="#45413C"/>
<path d="M364.818 14.3774L369.668 12.3684L372.275 18.6623L367.425 20.6714L364.818 14.3774Z" fill="#EF5E3B" stroke="#45413C"/>
<path d="M352.876 23.5884L356.588 19.876L361.406 24.6932L357.693 28.4055L352.876 23.5884Z" fill="#EF5E3B" stroke="#45413C"/>
<path d="M345.368 36.6679L347.377 31.8176L353.671 34.4246L351.662 39.275L345.368 36.6679Z" fill="#EF5E3B" stroke="#45413C"/>
<path d="M343.438 46.375H350.25V51.625H343.438V46.375Z" fill="#EF5E3B" stroke="#45413C"/>
<path d="M345.368 61.3321L351.662 58.725L353.671 63.5754L347.377 66.1824L345.368 61.3321Z" fill="#EF5E3B" stroke="#45413C"/>
<path d="M352.876 74.4116L357.693 69.5945L361.406 73.3068L356.588 78.124L352.876 74.4116Z" fill="#EF5E3B" stroke="#45413C"/>
<path d="M364.818 83.6226L367.425 77.3286L372.275 79.3377L369.668 85.6316L364.818 83.6226Z" fill="#EF5E3B" stroke="#45413C"/>
<path d="M379.375 80.75H384.625V87.5625H379.375V80.75Z" fill="#EF5E3B" stroke="#45413C"/>
<path d="M391.725 79.3377L396.575 77.3286L399.182 83.6226L394.332 85.6317L391.725 79.3377Z" fill="#EF5E3B" stroke="#45413C"/>
<path d="M402.594 73.3068L406.307 69.5945L411.124 74.4116L407.412 78.124L402.594 73.3068Z" fill="#EF5E3B" stroke="#45413C"/>
<path d="M410.329 63.5754L412.338 58.725L418.632 61.3321L416.623 66.1824L410.329 63.5754Z" fill="#EF5E3B" stroke="#45413C"/>
<path d="M413.75 46.375H420.562V51.625H413.75V46.375Z" fill="#EF5E3B" stroke="#45413C"/>
<path d="M410.329 34.4246L416.623 31.8176L418.632 36.668L412.338 39.275L410.329 34.4246Z" fill="#EF5E3B" stroke="#45413C"/>
<path d="M402.594 24.6932L407.412 19.876L411.124 23.5884L406.307 28.4055L402.594 24.6932Z" fill="#EF5E3B" stroke="#45413C"/>
<path d="M391.725 18.6623L394.332 12.3683L399.182 14.3774L396.575 20.6714L391.725 18.6623Z" fill="#EF5E3B" stroke="#45413C"/>
<path d="M377.812 6.71569H379.938V17.25H377.812V6.71569Z" fill="#E04F2B" stroke="#45413C"/>
<path d="M384.062 6.71569H386.188V17.25H384.062V6.71569Z" fill="#E04F2B" stroke="#45413C"/>
<path d="M361.95 11.5369L363.913 10.7237L367.944 20.4561L365.981 21.2693L361.95 11.5369Z" fill="#E04F2B" stroke="#45413C"/>
<path d="M367.724 9.14511L369.687 8.33191L373.719 18.0643L371.755 18.8775L367.724 9.14511Z" fill="#E04F2B" stroke="#45413C"/>
<path d="M349.139 22.0615L350.642 20.5589L358.091 28.0078L356.588 29.5104L349.139 22.0615Z" fill="#E04F2B" stroke="#45413C"/>
<path d="M353.559 17.6421L355.061 16.1395L362.51 23.5884L361.008 25.091L353.559 17.6421Z" fill="#E04F2B" stroke="#45413C"/>
<path d="M341.332 36.6872L342.145 34.724L351.878 38.7553L351.064 40.7186L341.332 36.6872Z" fill="#E04F2B" stroke="#45413C"/>
<path d="M343.724 30.913L344.537 28.9498L354.269 32.9811L353.456 34.9443L343.724 30.913Z" fill="#E04F2B" stroke="#45413C"/>
<path d="M339.716 51.0625H350.25V53.1875H339.716V51.0625Z" fill="#E04F2B" stroke="#45413C"/>
<path d="M339.716 44.8125H350.25V46.9375H339.716V44.8125Z" fill="#E04F2B" stroke="#45413C"/>
<path d="M343.724 67.087L353.456 63.0557L354.269 65.0189L344.537 69.0502L343.724 67.087Z" fill="#E04F2B" stroke="#45413C"/>
<path d="M341.332 61.3128L351.064 57.2814L351.878 59.2447L342.145 63.276L341.332 61.3128Z" fill="#E04F2B" stroke="#45413C"/>
<path d="M353.559 80.3579L361.008 72.9091L362.51 74.4117L355.061 81.8605L353.559 80.3579Z" fill="#E04F2B" stroke="#45413C"/>
<path d="M349.139 75.9385L356.588 68.4896L358.091 69.9922L350.642 77.4411L349.139 75.9385Z" fill="#E04F2B" stroke="#45413C"/>
<path d="M367.724 88.8549L371.755 79.1224L373.719 79.9356L369.687 89.6681L367.724 88.8549Z" fill="#E04F2B" stroke="#45413C"/>
<path d="M361.95 86.4631L365.981 76.7307L367.944 77.5439L363.913 87.2763L361.95 86.4631Z" fill="#E04F2B" stroke="#45413C"/>
<path d="M384.062 80.75H386.188V91.2843H384.062V80.75Z" fill="#E04F2B" stroke="#45413C"/>
<path d="M377.812 80.75H379.938V91.2843H377.812V80.75Z" fill="#E04F2B" stroke="#45413C"/>
<path d="M396.056 77.5439L398.019 76.7307L402.05 86.4631L400.087 87.2763L396.056 77.5439Z" fill="#E04F2B" stroke="#45413C"/>
<path d="M390.281 79.9357L392.245 79.1224L396.276 88.8549L394.313 89.6681L390.281 79.9357Z" fill="#E04F2B" stroke="#45413C"/>
<path d="M405.909 69.9922L407.412 68.4896L414.861 75.9385L413.358 77.4411L405.909 69.9922Z" fill="#E04F2B" stroke="#45413C"/>
<path d="M401.49 74.4117L402.992 72.9091L410.441 80.3579L408.939 81.8605L401.49 74.4117Z" fill="#E04F2B" stroke="#45413C"/>
<path d="M412.122 59.2447L412.936 57.2815L422.668 61.3128L421.855 63.276L412.122 59.2447Z" fill="#E04F2B" stroke="#45413C"/>
<path d="M409.731 65.019L410.544 63.0557L420.276 67.087L419.463 69.0503L409.731 65.019Z" fill="#E04F2B" stroke="#45413C"/>
<path d="M413.75 44.8125H424.284V46.9375H413.75V44.8125Z" fill="#E04F2B" stroke="#45413C"/>
<path d="M413.75 51.0625H424.284V53.1875H413.75V51.0625Z" fill="#E04F2B" stroke="#45413C"/>
<path d="M409.731 32.9811L419.463 28.9497L420.276 30.913L410.544 34.9443L409.731 32.9811Z" fill="#E04F2B" stroke="#45413C"/>
<path d="M412.122 38.7553L421.855 34.724L422.668 36.6872L412.936 40.7185L412.122 38.7553Z" fill="#E04F2B" stroke="#45413C"/>
<path d="M401.49 23.5884L408.939 16.1395L410.441 17.6421L402.992 25.091L401.49 23.5884Z" fill="#E04F2B" stroke="#45413C"/>
<path d="M405.909 28.0078L413.358 20.5589L414.861 22.0615L407.412 29.5104L405.909 28.0078Z" fill="#E04F2B" stroke="#45413C"/>
<path d="M390.281 18.0643L394.313 8.3319L396.276 9.1451L392.245 18.8775L390.281 18.0643Z" fill="#E04F2B" stroke="#45413C"/>
<path d="M396.056 20.4561L400.087 10.7237L402.05 11.5369L398.019 21.2693L396.056 20.4561Z" fill="#E04F2B" stroke="#45413C"/>
<path d="M369.645 8.78988L369.462 11.3714L364.258 13.5266L362.303 11.831C362.065 11.6247 361.879 11.3658 361.758 11.0749C361.553 10.578 361.553 10.0196 361.758 9.52262C361.964 9.02566 362.359 8.63083 362.856 8.42498L366.846 6.77231C367.343 6.56646 367.901 6.56646 368.398 6.77231C368.895 6.97816 369.29 7.37299 369.496 7.86995C369.616 8.16085 369.667 8.4758 369.645 8.78988Z" fill="#FF9178" stroke="#45413C"/>
<path d="M349.579 22.1979L349.422 22.669L349.579 22.1979C349.28 22.0983 349.009 21.9306 348.786 21.7079C348.598 21.5196 348.448 21.296 348.346 21.0499C348.244 20.8039 348.192 20.5401 348.192 20.2738C348.192 20.0075 348.244 19.7437 348.346 19.4976C348.448 19.2516 348.598 19.028 348.786 18.8397L348.432 18.4861L348.786 18.8397L351.84 15.7859C352.028 15.5976 352.252 15.4482 352.498 15.3463C352.744 15.2443 353.007 15.1919 353.274 15.1919C353.54 15.1919 353.804 15.2443 354.05 15.3463C354.296 15.4482 354.52 15.5976 354.708 15.7859L355.059 15.4344L354.708 15.7859C354.931 16.0085 355.098 16.28 355.198 16.5787L355.637 16.4323L355.198 16.5787L356.016 19.0339L352.034 23.0163L349.579 22.1979Z" fill="#FF9178" stroke="#45413C"/>
<path d="M344.831 29.3033L346.527 31.2585L344.371 36.4617L341.79 36.6452C341.476 36.6675 341.161 36.6164 340.87 36.4959C340.373 36.2901 339.978 35.8952 339.772 35.3983C339.566 34.9013 339.566 34.3429 339.772 33.846L341.425 29.856C341.631 29.3591 342.026 28.9643 342.523 28.7584C343.02 28.5526 343.578 28.5526 344.075 28.7584C344.366 28.8789 344.625 29.0655 344.831 29.3033Z" fill="#FF9178" stroke="#45413C"/>
<path d="M340.123 45.0266L342.438 46.184V51.816L340.123 52.9734C339.841 53.1142 339.531 53.1875 339.216 53.1875C338.949 53.1875 338.686 53.135 338.44 53.0331C338.193 52.9312 337.97 52.7818 337.782 52.5935C337.593 52.4051 337.444 52.1815 337.342 51.9355C337.24 51.6894 337.188 51.4257 337.188 51.1593V46.8407C337.188 46.5743 337.24 46.3106 337.342 46.0645C337.444 45.8185 337.593 45.5949 337.782 45.4065C337.97 45.2182 338.193 45.0688 338.44 44.9669C338.686 44.865 338.949 44.8125 339.216 44.8125C339.531 44.8125 339.841 44.8858 340.123 45.0266Z" fill="#FF9178" stroke="#45413C"/>
<path d="M341.79 61.3548L344.371 61.5383L346.527 66.7416L344.831 68.6967C344.625 68.9345 344.366 69.1211 344.075 69.2416C343.578 69.4475 343.02 69.4475 342.523 69.2416C342.026 69.0358 341.631 68.6409 341.425 68.144L339.772 64.1541C339.566 63.6571 339.566 63.0987 339.772 62.6018C339.978 62.1048 340.373 61.71 340.87 61.5041L340.679 61.0422L340.87 61.5041C341.161 61.3836 341.476 61.3325 341.79 61.3548L341.825 60.8561L341.79 61.3548Z" fill="#FF9178" stroke="#45413C"/>
<path d="M349.579 75.8021L352.034 74.9837L356.016 78.9661L355.198 81.4213L355.672 81.5794L355.198 81.4213C355.098 81.72 354.931 81.9915 354.708 82.2141C354.52 82.4024 354.296 82.5518 354.05 82.6537C353.804 82.7557 353.54 82.8081 353.274 82.8081C353.007 82.8081 352.744 82.7557 352.498 82.6537C352.252 82.5518 352.028 82.4024 351.84 82.2141L348.786 79.1603C348.598 78.972 348.448 78.7484 348.346 78.5024C348.244 78.2563 348.192 77.9926 348.192 77.7262C348.192 77.4599 348.244 77.1961 348.346 76.9501C348.448 76.704 348.598 76.4804 348.786 76.2921L348.437 75.9431L348.786 76.2921C349.009 76.0694 349.28 75.9017 349.579 75.8021L349.421 75.3278L349.579 75.8021Z" fill="#FF9178" stroke="#45413C"/>
<path d="M362.303 86.169L364.258 84.4734L369.462 86.6286L369.645 89.2101C369.667 89.5242 369.616 89.8391 369.496 90.13C369.29 90.627 368.895 91.0218 368.398 91.2277C367.901 91.4335 367.343 91.4335 366.846 91.2277L362.856 89.575C362.359 89.3692 361.964 88.9743 361.758 88.4774C361.553 87.9804 361.553 87.422 361.758 86.9251C361.879 86.6342 362.065 86.3753 362.303 86.169Z" fill="#FF9178" stroke="#45413C"/>
<path d="M378.027 90.8773L379.184 88.5625H384.816L385.973 90.8773C386.114 91.1589 386.188 91.4695 386.188 91.7843C386.188 92.0507 386.135 92.3144 386.033 92.5605C385.931 92.8065 385.782 93.0301 385.593 93.2185C385.405 93.4068 385.182 93.5562 384.935 93.6581C384.689 93.76 384.426 93.8125 384.159 93.8125H379.841C379.574 93.8125 379.311 93.76 379.065 93.6581C378.818 93.5562 378.595 93.4068 378.407 93.2185C378.218 93.0301 378.069 92.8065 377.967 92.5605C377.865 92.3144 377.812 92.0507 377.812 91.7843C377.812 91.4695 377.886 91.1589 378.027 90.8773Z" fill="#FF9178" stroke="#45413C"/>
<path d="M394.355 89.2101L394.538 86.6286L399.742 84.4734L401.697 86.169C401.935 86.3753 402.121 86.6342 402.242 86.9251C402.447 87.422 402.447 87.9804 402.242 88.4774C402.036 88.9743 401.641 89.3692 401.144 89.575L397.154 91.2277C396.657 91.4335 396.099 91.4335 395.602 91.2277C395.105 91.0218 394.71 90.627 394.504 90.1301L394.047 90.3193L394.504 90.1301C394.384 89.8392 394.333 89.5242 394.355 89.2101L393.856 89.1747L394.355 89.2101Z" fill="#FF9178" stroke="#45413C"/>
<path d="M408.802 81.4213L407.984 78.9661L411.966 74.9837L414.421 75.8021L414.579 75.3278L414.421 75.8021C414.72 75.9017 414.991 76.0694 415.214 76.2921C415.402 76.4804 415.552 76.704 415.654 76.9501C415.756 77.1961 415.808 77.4599 415.808 77.7262C415.808 77.9925 415.756 78.2563 415.654 78.5023C415.552 78.7484 415.402 78.972 415.214 79.1603L412.16 82.2141C411.972 82.4024 411.748 82.5518 411.502 82.6537C411.256 82.7557 410.993 82.8081 410.726 82.8081C410.46 82.8081 410.196 82.7557 409.95 82.6537C409.704 82.5518 409.48 82.4024 409.292 82.2141L408.967 82.5394L409.292 82.2141C409.069 81.9914 408.902 81.72 408.802 81.4213Z" fill="#FF9178" stroke="#45413C"/>
<path d="M419.169 68.6967L417.473 66.7416L419.629 61.5383L422.21 61.3548C422.524 61.3325 422.839 61.3836 423.13 61.5041C423.627 61.71 424.022 62.1048 424.228 62.6018C424.434 63.0987 424.434 63.6571 424.228 64.1541L422.575 68.144C422.369 68.6409 421.974 69.0358 421.477 69.2416C420.98 69.4475 420.422 69.4475 419.925 69.2416L419.734 69.7036L419.925 69.2416C419.634 69.1211 419.375 68.9345 419.169 68.6967Z" fill="#FF9178" stroke="#45413C"/>
<path d="M423.877 52.9734L421.562 51.816V46.184L423.877 45.0266C424.159 44.8858 424.469 44.8125 424.784 44.8125C425.051 44.8125 425.314 44.865 425.56 44.9669C425.807 45.0688 426.03 45.2182 426.218 45.4065C426.407 45.5949 426.556 45.8185 426.658 46.0645C426.76 46.3106 426.812 46.5743 426.812 46.8407V51.1593C426.812 51.6972 426.599 52.2131 426.218 52.5935C425.838 52.9738 425.322 53.1875 424.784 53.1875C424.469 53.1875 424.159 53.1142 423.877 52.9734Z" fill="#FF9178" stroke="#45413C"/>
<path d="M422.21 36.6452L419.629 36.4617L417.473 31.2585L419.169 29.3033C419.375 29.0655 419.634 28.8789 419.925 28.7584C420.422 28.5526 420.98 28.5526 421.477 28.7584C421.974 28.9643 422.369 29.3591 422.575 29.856L424.228 33.846C424.434 34.3429 424.434 34.9013 424.228 35.3983C424.022 35.8952 423.627 36.2901 423.13 36.4959C422.839 36.6164 422.524 36.6675 422.21 36.6452Z" fill="#FF9178" stroke="#45413C"/>
<path d="M408.802 16.5787L408.802 16.5787L407.984 19.0339L411.966 23.0163L414.421 22.1979C414.72 22.0983 414.991 21.9306 415.214 21.7079L415.568 22.0615L415.214 21.7079C415.402 21.5196 415.552 21.296 415.654 21.0499C415.756 20.8039 415.808 20.5401 415.808 20.2738C415.808 20.0074 415.756 19.7437 415.654 19.4976C415.552 19.2516 415.402 19.028 415.214 18.8397L412.16 15.7859C411.972 15.5976 411.748 15.4482 411.502 15.3463C411.256 15.2443 410.993 15.1919 410.726 15.1919C410.46 15.1919 410.196 15.2443 409.95 15.3463C409.704 15.4482 409.48 15.5976 409.292 15.7859L408.802 16.5787ZM408.802 16.5787C408.902 16.28 409.069 16.0086 409.292 15.7859L408.802 16.5787Z" fill="#FF9178" stroke="#45413C"/>
<path d="M401.697 11.831L399.742 13.5266L394.538 11.3714L394.355 8.78988C394.333 8.47581 394.384 8.16085 394.504 7.86996L394.042 7.67861L394.504 7.86996C394.71 7.373 395.105 6.97816 395.602 6.77232C396.099 6.56647 396.657 6.56647 397.154 6.77232L401.144 8.42499C401.641 8.63084 402.036 9.02567 402.242 9.52263C402.447 10.0196 402.447 10.578 402.242 11.0749C402.121 11.3658 401.935 11.6247 401.697 11.831Z" fill="#FF9178" stroke="#45413C"/>
<path d="M389.312 49C389.312 53.0386 386.039 56.3125 382 56.3125C377.961 56.3125 374.688 53.0386 374.688 49C374.688 44.9614 377.961 41.6875 382 41.6875C386.039 41.6875 389.312 44.9614 389.312 49Z" fill="#FF9178" stroke="#45413C"/>
<path d="M386.188 25.5625C386.188 27.8752 384.313 29.75 382 29.75C379.687 29.75 377.812 27.8752 377.812 25.5625C377.812 23.2498 379.687 21.375 382 21.375C384.313 21.375 386.188 23.2498 386.188 25.5625Z" fill="#FF9178" stroke="#45413C"/>
<path d="M369.615 32.4272C369.615 34.7399 367.74 36.6147 365.427 36.6147C363.114 36.6147 361.24 34.7399 361.24 32.4272C361.24 30.1145 363.114 28.2397 365.427 28.2397C367.74 28.2397 369.615 30.1145 369.615 32.4272Z" fill="#FF9178" stroke="#45413C"/>
<path d="M362.75 49C362.75 51.3127 360.875 53.1875 358.562 53.1875C356.25 53.1875 354.375 51.3127 354.375 49C354.375 46.6873 356.25 44.8125 358.562 44.8125C360.875 44.8125 362.75 46.6873 362.75 49Z" fill="#FF9178" stroke="#45413C"/>
<path d="M369.615 65.5728C369.615 67.8855 367.74 69.7603 365.427 69.7603C363.114 69.7603 361.24 67.8855 361.24 65.5728C361.24 63.2601 363.114 61.3853 365.427 61.3853C367.74 61.3853 369.615 63.2601 369.615 65.5728Z" fill="#FF9178" stroke="#45413C"/>
<path d="M386.188 72.4375C386.188 74.7502 384.313 76.625 382 76.625C379.687 76.625 377.812 74.7502 377.812 72.4375C377.812 70.1248 379.687 68.25 382 68.25C384.313 68.25 386.188 70.1248 386.188 72.4375Z" fill="#FF9178" stroke="#45413C"/>
<path d="M402.76 65.5728C402.76 67.8855 400.886 69.7603 398.573 69.7603C396.26 69.7603 394.385 67.8855 394.385 65.5728C394.385 63.2601 396.26 61.3853 398.573 61.3853C400.886 61.3853 402.76 63.2601 402.76 65.5728Z" fill="#FF9178" stroke="#45413C"/>
<path d="M409.625 49C409.625 51.3127 407.75 53.1875 405.438 53.1875C403.125 53.1875 401.25 51.3127 401.25 49C401.25 46.6873 403.125 44.8125 405.438 44.8125C407.75 44.8125 409.625 46.6873 409.625 49Z" fill="#FF9178" stroke="#45413C"/>
<path d="M402.76 32.4272C402.76 34.7399 400.886 36.6147 398.573 36.6147C396.26 36.6147 394.385 34.7399 394.385 32.4272C394.385 30.1145 396.26 28.2397 398.573 28.2397C400.886 28.2397 402.76 30.1145 402.76 32.4272Z" fill="#FF9178" stroke="#45413C"/>
<path d="M385.973 7.12271L384.816 9.4375H379.184L378.027 7.12271C377.886 6.84108 377.812 6.53054 377.812 6.21568C377.812 5.94934 377.865 5.6856 377.967 5.43953C378.069 5.19346 378.218 4.96987 378.407 4.78154C378.595 4.59321 378.818 4.44381 379.065 4.34189C379.311 4.23996 379.574 4.1875 379.841 4.1875H384.159C384.697 4.1875 385.213 4.40118 385.593 4.78154C385.974 5.1619 386.188 5.67777 386.188 6.21568C386.188 6.53054 386.114 6.84108 385.973 7.12271Z" fill="#FF9178" stroke="#45413C"/>
</g>
<defs>
<filter id="filter0_i" x="0" y="0" width="512" height="516" filterUnits="userSpaceOnUse" color-interpolation-filters="sRGB">
<feFlood flood-opacity="0" result="BackgroundImageFix"/>
<feBlend mode="normal" in="SourceGraphic" in2="BackgroundImageFix" result="shape"/>
<feColorMatrix in="SourceAlpha" type="matrix" values="0 0 0 0 0 0 0 0 0 0 0 0 0 0 0 0 0 0 127 0" result="hardAlpha"/>
<feOffset dy="4"/>
<feGaussianBlur stdDeviation="2"/>
<feComposite in2="hardAlpha" operator="arithmetic" k2="-1" k3="1"/>
<feColorMatrix type="matrix" values="0 0 0 0 0 0 0 0 0 0 0 0 0 0 0 0 0 0 0.25 0"/>
<feBlend mode="normal" in2="shape" result="effect1_innerShadow"/>
</filter>
<filter id="filter1_i" x="26" y="162" width="460" height="464" filterUnits="userSpaceOnUse" color-interpolation-filters="sRGB">
<feFlood flood-opacity="0" result="BackgroundImageFix"/>
<feBlend mode="normal" in="SourceGraphic" in2="BackgroundImageFix" result="shape"/>
<feColorMatrix in="SourceAlpha" type="matrix" values="0 0 0 0 0 0 0 0 0 0 0 0 0 0 0 0 0 0 127 0" result="hardAlpha"/>
<feOffset dy="4"/>
<feGaussianBlur stdDeviation="2"/>
<feComposite in2="hardAlpha" operator="arithmetic" k2="-1" k3="1"/>
<feColorMatrix type="matrix" values="0 0 0 0 0 0 0 0 0 0 0 0 0 0 0 0 0 0 0.25 0"/>
<feBlend mode="normal" in2="shape" result="effect1_innerShadow"/>
</filter>
<clipPath id="clip0">
<rect width="512" height="512" fill="white"/>
</clipPath>
</defs>
</svg>
